<mxfile host="app.diagrams.net" modified="2023-09-28T10:31:48.674Z" agent="Mozilla/5.0 (Windows NT 10.0; Win64; x64; rv:109.0) Gecko/20100101 Firefox/117.0" etag="lQgnzsTijG_bZwqKzv0q" version="21.2.3" type="device">
  <diagram name="Страница 1" id="cUjjUj1EhB7zKsQsvFTo">
    <mxGraphModel dx="1114" dy="602" grid="1" gridSize="10" guides="1" tooltips="1" connect="1" arrows="1" fold="1" page="1" pageScale="1" pageWidth="827" pageHeight="1169" math="0" shadow="0">
      <root>
        <mxCell id="0" />
        <mxCell id="1" parent="0" />
        <mxCell id="s-OvUWTf_hIzMa2GPE4v-29" value="Login page" style="swimlane;whiteSpace=wrap;html=1;" vertex="1" parent="1">
          <mxGeometry x="440" y="40" width="310" height="490" as="geometry" />
        </mxCell>
        <mxCell id="s-OvUWTf_hIzMa2GPE4v-34" style="edgeStyle=orthogonalEdgeStyle;rounded=0;orthogonalLoop=1;jettySize=auto;html=1;exitX=0.5;exitY=1;exitDx=0;exitDy=0;entryX=0.5;entryY=0;entryDx=0;entryDy=0;" edge="1" parent="s-OvUWTf_hIzMa2GPE4v-29" source="s-OvUWTf_hIzMa2GPE4v-31" target="s-OvUWTf_hIzMa2GPE4v-32">
          <mxGeometry relative="1" as="geometry" />
        </mxCell>
        <mxCell id="s-OvUWTf_hIzMa2GPE4v-31" value="" style="ellipse;whiteSpace=wrap;html=1;aspect=fixed;" vertex="1" parent="s-OvUWTf_hIzMa2GPE4v-29">
          <mxGeometry x="150" y="40" width="20" height="20" as="geometry" />
        </mxCell>
        <mxCell id="s-OvUWTf_hIzMa2GPE4v-32" value="Login form" style="rounded=1;whiteSpace=wrap;html=1;" vertex="1" parent="s-OvUWTf_hIzMa2GPE4v-29">
          <mxGeometry x="100" y="90" width="120" height="60" as="geometry" />
        </mxCell>
        <mxCell id="s-OvUWTf_hIzMa2GPE4v-37" style="edgeStyle=orthogonalEdgeStyle;rounded=0;orthogonalLoop=1;jettySize=auto;html=1;exitX=1;exitY=0.5;exitDx=0;exitDy=0;entryX=1;entryY=0.5;entryDx=0;entryDy=0;" edge="1" parent="s-OvUWTf_hIzMa2GPE4v-29" source="s-OvUWTf_hIzMa2GPE4v-36" target="s-OvUWTf_hIzMa2GPE4v-32">
          <mxGeometry relative="1" as="geometry" />
        </mxCell>
        <mxCell id="s-OvUWTf_hIzMa2GPE4v-38" value="No" style="edgeLabel;html=1;align=center;verticalAlign=middle;resizable=0;points=[];" vertex="1" connectable="0" parent="s-OvUWTf_hIzMa2GPE4v-37">
          <mxGeometry x="-0.3677" y="1" relative="1" as="geometry">
            <mxPoint as="offset" />
          </mxGeometry>
        </mxCell>
        <mxCell id="s-OvUWTf_hIzMa2GPE4v-36" value="Valid?" style="rhombus;whiteSpace=wrap;html=1;" vertex="1" parent="s-OvUWTf_hIzMa2GPE4v-29">
          <mxGeometry x="115" y="220" width="80" height="80" as="geometry" />
        </mxCell>
        <mxCell id="s-OvUWTf_hIzMa2GPE4v-42" value="" style="ellipse;whiteSpace=wrap;html=1;aspect=fixed;" vertex="1" parent="s-OvUWTf_hIzMa2GPE4v-29">
          <mxGeometry x="145" y="420" width="20" height="20" as="geometry" />
        </mxCell>
        <mxCell id="s-OvUWTf_hIzMa2GPE4v-30" value="User" style="swimlane;whiteSpace=wrap;html=1;" vertex="1" parent="1">
          <mxGeometry x="170" y="40" width="270" height="490" as="geometry" />
        </mxCell>
        <mxCell id="s-OvUWTf_hIzMa2GPE4v-33" value="Input usr and pass" style="rounded=1;whiteSpace=wrap;html=1;" vertex="1" parent="s-OvUWTf_hIzMa2GPE4v-30">
          <mxGeometry x="80" y="90" width="120" height="60" as="geometry" />
        </mxCell>
        <mxCell id="s-OvUWTf_hIzMa2GPE4v-39" value="Proceeds to transaction" style="rounded=1;whiteSpace=wrap;html=1;" vertex="1" parent="s-OvUWTf_hIzMa2GPE4v-30">
          <mxGeometry x="80" y="230" width="120" height="60" as="geometry" />
        </mxCell>
        <mxCell id="s-OvUWTf_hIzMa2GPE4v-35" style="edgeStyle=orthogonalEdgeStyle;rounded=0;orthogonalLoop=1;jettySize=auto;html=1;exitX=0;exitY=0.5;exitDx=0;exitDy=0;entryX=1;entryY=0.5;entryDx=0;entryDy=0;" edge="1" parent="1" source="s-OvUWTf_hIzMa2GPE4v-32" target="s-OvUWTf_hIzMa2GPE4v-33">
          <mxGeometry relative="1" as="geometry" />
        </mxCell>
        <mxCell id="s-OvUWTf_hIzMa2GPE4v-40" style="edgeStyle=orthogonalEdgeStyle;rounded=0;orthogonalLoop=1;jettySize=auto;html=1;exitX=0;exitY=0.5;exitDx=0;exitDy=0;entryX=1;entryY=0.5;entryDx=0;entryDy=0;" edge="1" parent="1" source="s-OvUWTf_hIzMa2GPE4v-36" target="s-OvUWTf_hIzMa2GPE4v-39">
          <mxGeometry relative="1" as="geometry" />
        </mxCell>
        <mxCell id="s-OvUWTf_hIzMa2GPE4v-41" value="Yes" style="edgeLabel;html=1;align=center;verticalAlign=middle;resizable=0;points=[];" vertex="1" connectable="0" parent="s-OvUWTf_hIzMa2GPE4v-40">
          <mxGeometry x="-0.2757" y="-2" relative="1" as="geometry">
            <mxPoint as="offset" />
          </mxGeometry>
        </mxCell>
        <mxCell id="s-OvUWTf_hIzMa2GPE4v-43" style="edgeStyle=orthogonalEdgeStyle;rounded=0;orthogonalLoop=1;jettySize=auto;html=1;exitX=0.5;exitY=1;exitDx=0;exitDy=0;entryX=0;entryY=0.5;entryDx=0;entryDy=0;" edge="1" parent="1" source="s-OvUWTf_hIzMa2GPE4v-39" target="s-OvUWTf_hIzMa2GPE4v-42">
          <mxGeometry relative="1" as="geometry" />
        </mxCell>
      </root>
    </mxGraphModel>
  </diagram>
</mxfile>
